<mxfile host="app.diagrams.net" agent="Mozilla/5.0 (Windows NT 10.0; Win64; x64) AppleWebKit/537.36 (KHTML, like Gecko) Chrome/134.0.0.0 Safari/537.36" version="26.1.3">
  <diagram name="Page-1" id="4GpUAzfrA6jfPeDqhZuW">
    <mxGraphModel dx="1660" dy="724" grid="1" gridSize="10" guides="1" tooltips="1" connect="1" arrows="1" fold="1" page="1" pageScale="1" pageWidth="850" pageHeight="1100" math="0" shadow="0">
      <root>
        <mxCell id="0" />
        <mxCell id="1" parent="0" />
        <mxCell id="OY8RV9DwScPBDpuIy3qS-36" value="" style="rounded=0;whiteSpace=wrap;html=1;fillColor=#E6E6E6;" vertex="1" parent="1">
          <mxGeometry x="17.46" y="40" width="722.54" height="410" as="geometry" />
        </mxCell>
        <mxCell id="OY8RV9DwScPBDpuIy3qS-1" value="" style="aspect=fixed;sketch=0;html=1;dashed=0;whitespace=wrap;verticalLabelPosition=bottom;verticalAlign=top;fillColor=#2875E2;strokeColor=#ffffff;points=[[0.005,0.63,0],[0.1,0.2,0],[0.9,0.2,0],[0.5,0,0],[0.995,0.63,0],[0.72,0.99,0],[0.5,1,0],[0.28,0.99,0]];shape=mxgraph.kubernetes.icon2;kubernetesLabel=1;prIcon=api" vertex="1" parent="1">
          <mxGeometry x="41" y="180" width="72.92" height="70" as="geometry" />
        </mxCell>
        <mxCell id="OY8RV9DwScPBDpuIy3qS-5" value="" style="rounded=0;whiteSpace=wrap;html=1;" vertex="1" parent="1">
          <mxGeometry x="181" y="190" width="160" height="70" as="geometry" />
        </mxCell>
        <mxCell id="OY8RV9DwScPBDpuIy3qS-4" value="" style="rounded=0;whiteSpace=wrap;html=1;" vertex="1" parent="1">
          <mxGeometry x="171" y="180" width="160" height="70" as="geometry" />
        </mxCell>
        <mxCell id="OY8RV9DwScPBDpuIy3qS-7" value="" style="endArrow=classic;startArrow=classic;html=1;rounded=0;" edge="1" parent="1">
          <mxGeometry width="50" height="50" relative="1" as="geometry">
            <mxPoint x="113.92000000000002" y="214.5" as="sourcePoint" />
            <mxPoint x="163.92000000000002" y="214.5" as="targetPoint" />
          </mxGeometry>
        </mxCell>
        <mxCell id="OY8RV9DwScPBDpuIy3qS-8" value="Apigee Platform" style="text;html=1;align=center;verticalAlign=middle;whiteSpace=wrap;rounded=0;" vertex="1" parent="1">
          <mxGeometry x="220" y="200" width="90" height="30" as="geometry" />
        </mxCell>
        <mxCell id="OY8RV9DwScPBDpuIy3qS-13" value="" style="shape=image;verticalLabelPosition=bottom;labelBackgroundColor=default;verticalAlign=top;aspect=fixed;imageAspect=0;editableCssRules=.*;image=data:image/svg+xml,PHN2ZyB4bWxuczp4bGluaz0iaHR0cDovL3d3dy53My5vcmcvMTk5OS94bGluayIgeG1sbnM9Imh0dHA6Ly93d3cudzMub3JnLzIwMDAvc3ZnIiB2aWV3Qm94PSIwLjAwMzc5MTQ1ODIwNjI1MTI2MzYgMC4yMTQ3ODMyNjYxODY3MTQxNyAxNDYuMzY2MjI2MTk2Mjg5MDYgMTM4Ljc1MDUwMzU0MDAzOTA2IiBkYXRhLW5hbWU9IkxheWVyIDEiIGlkPSJMYXllcl8xIiB3aWR0aD0iMTQ2LjM2NjIyNjE5NjI4OTA2IiBoZWlnaHQ9IjEzOC43NTA1MDM1NDAwMzkwNiI+JiN4YTsgPGRlZnM+JiN4YTsgIDxzdHlsZT4mI3hhOyAgIC5jbHMtMXtmaWxsOiMyOWI1ZTg7ZmlsbC1ydWxlOmV2ZW5vZGQ7fSYjeGE7ICA8L3N0eWxlPiYjeGE7IDwvZGVmcz4mI3hhOyA8cGF0aCBkPSJNMTM0LjgxLDYwLjFsLTE2LjQ3LDkuNDlMMTM0LjgxLDc5YTguNjUsOC42NSwwLDEsMS04LjY3LDE1bC0yOS41MS0xN2E4LjY4LDguNjgsMCwwLDEtNC4zMy03Ljc1LDguNDgsOC40OCwwLDAsMSwuMzEtMiw4LjY4LDguNjgsMCwwLDEsNC01LjE5bDI5LjUxLTE2Ljk0QTguNjksOC42OSwwLDAsMSwxMzgsNDguMzEsOC41OCw4LjU4LDAsMCwxLDEzNC44MSw2MC4xWm0tMTUuNTksNDZMODkuNzIsODkuMTNhOC43Miw4LjcyLDAsMCwwLTEzLjA2LDcuNDh2MzMuOWE4LjY5LDguNjksMCwwLDAsMTcuMzcsMHYtMTlMMTEwLjU0LDEyMWE4LjY2LDguNjYsMCwxLDAsOC42OC0xNVptLTM0LTMzLjE2TDcyLjkyLDg1LjA5YTIuNDQsMi40NCwwLDAsMS0xLjU0LjY1SDY3Ljc3YTIuNTEsMi41MSwwLDAsMS0xLjU0LS42NUw1NCw3Mi45YTIuNDUsMi40NSwwLDAsMS0uNjQtMS41MnYtMy42QTIuNSwyLjUsMCwwLDEsNTQsNjYuMjVMNjYuMjMsNTQuMDZhMi41LDIuNSwwLDAsMSwxLjU0LS42NGgzLjYxYTIuNDUsMi40NSwwLDAsMSwxLjU0LjY0TDg1LjE4LDY2LjI1YTIuNDksMi40OSwwLDAsMSwuNjMsMS41M3YzLjZBMi40NCwyLjQ0LDAsMCwxLDg1LjE4LDcyLjlabS05LjgtMy4zOEEyLjU5LDIuNTksMCwwLDAsNzQuNzMsNjhsLTMuNTUtMy41MWEyLjUxLDIuNTEsMCwwLDAtMS41NC0uNjRoLS4xM2EyLjQ2LDIuNDYsMCwwLDAtMS41My42NEw2NC40Myw2OGEyLjUxLDIuNTEsMCwwLDAtLjYzLDEuNTV2LjEzYTIuNDEsMi40MSwwLDAsMCwuNjMsMS41Mkw2OCw3NC43YTIuNDgsMi40OCwwLDAsMCwxLjUzLjY0aC4xM2EyLjUxLDIuNTEsMCwwLDAsMS41NC0uNjRsMy41NS0zLjUzYTIuNDksMi40OSwwLDAsMCwuNjUtMS41MlpNMTkuOTMsMzMuMDgsNDkuNDQsNTBhOC43Myw4LjczLDAsMCwwLDEzLjA3LTcuNDlWOC42NGE4LjY5LDguNjksMCwwLDAtMTcuMzcsMHYxOWwtMTYuNTMtOS41YTguNjUsOC42NSwwLDEsMC04LjY4LDE1Wk04NC42OSw1MS4xNmE4LjY0LDguNjQsMCwwLDAsNS0xLjEzbDI5LjUtMTdhOC42NSw4LjY1LDAsMSwwLTguNjgtMTVMOTQsMjcuNjF2LTE5YTguNjksOC42OSwwLDAsMC0xNy4zNywwdjMzLjlBOC42Niw4LjY2LDAsMCwwLDg0LjY5LDUxLjE2Wk01NC40OCw4OGE4LjU4LDguNTgsMCwwLDAtNSwxLjEzTDE5LjkzLDEwNi4wNmE4LjY2LDguNjYsMCwxLDAsOC42OCwxNWwxNi41My05LjQ5djE5YTguNjksOC42OSwwLDAsMCwxNy4zNywwVjk2LjYxQTguNjUsOC42NSwwLDAsMCw1NC40OCw4OFptLTgtMTUuODdhOC42MSw4LjYxLDAsMCwwLTQtMTBMMTMsNDUuMTRBOC42OSw4LjY5LDAsMCwwLDEuMTcsNDguMzEsOC41OSw4LjU5LDAsMCwwLDQuMzUsNjAuMWwxNi40Nyw5LjQ5TDQuMzUsNzlBOC42NSw4LjY1LDAsMSwwLDEzLDk0bDI5LjQ4LTE3QTguNTksOC41OSwwLDAsMCw0Ni40Nyw3Mi4xM1ptOTMuMTUtNTYuMjJIMTM4LjN2MS42M2gxLjMyYy42MSwwLDEtLjI4LDEtLjhTMTQwLjI2LDE1LjkxLDEzOS42MiwxNS45MVptLTIuOTQtMS41aDNjMS42MiwwLDIuNy44OSwyLjcsMi4yN2EyLjE2LDIuMTYsMCwwLDEtMS4wOCwxLjlsMS4xNywxLjY4di4zNGgtMS42OUwxMzkuNjIsMTlIMTM4LjNWMjAuNmgtMS42MlptOC4zLDMuMjJhNS40OCw1LjQ4LDAsMCwwLTUuNTgtNS44M2MtMy4zMSwwLTUuNTEsMi4zOS01LjUxLDUuODMsMCwzLjI4LDIuMiw1LjgyLDUuNTEsNS44MkE1LjQ3LDUuNDcsMCwwLDAsMTQ1LDE3LjYzWm0xLjM4LDBjMCwzLjg5LTIuNiw3LjE0LTcsNy4xNHMtNi44OS0zLjI4LTYuODktNy4xNCwyLjU3LTcuMTQsNi44OS03LjE0UzE0Ni4zNiwxMy43MywxNDYuMzYsMTcuNjNaIiBjbGFzcz0iY2xzLTEiPiYjeGE7IDwvcGF0aD4mI3hhOzwvc3ZnPg==;" vertex="1" parent="1">
          <mxGeometry x="440.19" y="340" width="76" height="72.36" as="geometry" />
        </mxCell>
        <mxCell id="OY8RV9DwScPBDpuIy3qS-15" value="" style="shape=image;verticalLabelPosition=bottom;labelBackgroundColor=default;verticalAlign=top;aspect=fixed;imageAspect=0;editableCssRules=.*;image=data:image/svg+xml,PHN2ZyB4bWxuczp4bGluaz0iaHR0cDovL3d3dy53My5vcmcvMTk5OS94bGluayIgeG1sbnM9Imh0dHA6Ly93d3cudzMub3JnLzIwMDAvc3ZnIiB4bWw6c3BhY2U9InByZXNlcnZlIiBzdHlsZT0iZW5hYmxlLWJhY2tncm91bmQ6bmV3IDAgMCA0MC4xIDQyOyIgdmlld0JveD0iMCAwIDQwLjIwMDAwMDc2MjkzOTQ1IDQyIiB5PSIwcHgiIHg9IjBweCIgaWQ9IkxheWVyXzEiIHZlcnNpb249IjEuMSIgd2lkdGg9IjQwLjIwMDAwMDc2MjkzOTQ1IiBoZWlnaHQ9IjQyIj4mI3hhOyA8c3R5bGUgdHlwZT0idGV4dC9jc3MiPiYjeGE7ICAuc3Qwe2ZpbGw6I0ZGMzYyMTt9JiN4YTsgPC9zdHlsZT4mI3hhOyA8bWV0YWRhdGE+JiN4YTsgICYjeGE7ICAgJiN4YTsgICAmI3hhOyAgICYjeGE7ICAgJiN4YTsgICYjeGE7IDwvbWV0YWRhdGE+JiN4YTsgPGc+JiN4YTsgIDxwYXRoIGQ9Ik00MC4xLDMxLjF2LTcuNGwtMC44LTAuNUwyMC4xLDMzLjdsLTE4LjItMTBsMC00LjNsMTguMiw5LjlsMjAuMS0xMC45di03LjNsLTAuOC0wLjVMMjAuMSwyMS4yTDIuNiwxMS42JiMxMDsmIzk7JiM5O0wyMC4xLDJsMTQuMSw3LjdsMS4xLTAuNlY4LjNMMjAuMSwwTDAsMTAuOVYxMkwyMC4xLDIzbDE4LjItMTB2NC40bC0xOC4yLDEwTDAuOCwxNi44TDAsMTcuM3Y3LjRsMjAuMSwxMC45bDE4LjItOS45djQuM2wtMTguMiwxMCYjMTA7JiM5OyYjOTtMMC44LDI5LjVMMCwzMHYxLjFMMjAuMSw0Mkw0MC4xLDMxLjF6IiBjbGFzcz0ic3QwIj4mI3hhOyAgPC9wYXRoPiYjeGE7IDwvZz4mI3hhOzwvc3ZnPg==;" vertex="1" parent="1">
          <mxGeometry x="441" y="180" width="76.19" height="80" as="geometry" />
        </mxCell>
        <mxCell id="OY8RV9DwScPBDpuIy3qS-16" value="" style="shape=image;verticalLabelPosition=bottom;labelBackgroundColor=default;verticalAlign=top;aspect=fixed;imageAspect=0;editableCssRules=.*;image=data:image/svg+xml,PHN2ZyB4bWxuczp4bGluaz0iaHR0cDovL3d3dy53My5vcmcvMTk5OS94bGluayIgeG1sbnM9Imh0dHA6Ly93d3cudzMub3JnLzIwMDAvc3ZnIiBmaWxsPSJub25lIiB2aWV3Qm94PSIwLjc0OTUxNDEwMjkzNTc5MSAtMC4wMDA1Mzc4NzIzMTQ0NTMxMjUgMjk5Ljk5OTgxNjg5NDUzMTI1IDE2My4xNDg3ODg0NTIxNDg0NCIgaGVpZ2h0PSIxNjMuMTQ4Nzg4NDUyMTQ4NDQiIHdpZHRoPSIyOTkuOTk5ODE2ODk0NTMxMjUiPiYjeGE7IDxwYXRoIGZpbGw9IiNGRjRCNEIiIGQ9Ik0xNTAuNzMxIDEwMS41NDdMOTguMTM4NyA3My43NDcxTDYuODQ2NzQgMjUuNDk2OUM2Ljc2MzQgMjUuNDEzNiA2LjU5Njc0IDI1LjQxMzYgNi41MTM0MSAyNS40MTM2QzMuMTgwMDcgMjMuODMwMyAtMC4yMzY2MDggMjcuMTYzNiAxLjAxMzQgMzAuNDk3TDQ3LjUzMDIgMTQ5LjEzOUw0Ny41Mzg1IDE0OS4xNjRDNDcuNTg4NSAxNDkuMjgxIDQ3LjYzMDIgMTQ5LjM5NyA0Ny42ODAyIDE0OS41MTRDNDkuNTg4NSAxNTMuOTM5IDUzLjc1NTIgMTU2LjY3MiA1OC4yODg2IDE1Ny43NDdDNTguNjcxOSAxNTcuODMxIDU4Ljk0NjEgMTU3LjkwNiA1OS40MDY0IDE1Ny45OThDNTkuODY0NSAxNTguMSA2MC41MDUyIDE1OC4yMzkgNjEuMDU1MiAxNTguMjgxQzYxLjE0NjkgMTU4LjI4OSA2MS4yMzAyIDE1OC4yODkgNjEuMzIxOSAxNTguMjk3SDYxLjM4ODZDNjEuNDU1MiAxNTguMzA2IDYxLjUyMTkgMTU4LjMwNiA2MS41ODg2IDE1OC4zMTRINjEuNjgwMkM2MS43Mzg2IDE1OC4zMjIgNjEuODA1MiAxNTguMzIyIDYxLjg2MzYgMTU4LjMyMkg2MS45NzE5QzYyLjAzODYgMTU4LjMzMSA2Mi4xMDUyIDE1OC4zMzEgNjIuMTcxOSAxNTguMzMxVjE1OC4zMzFDMTIxLjA4NCAxNjQuNzU0IDE4MC41MTkgMTY0Ljc1NCAyMzkuNDMxIDE1OC4zMzFWMTU4LjMzMUMyNDAuMTM5IDE1OC4zMzEgMjQwLjgzMSAxNTguMjk3IDI0MS40OTcgMTU4LjIzMUMyNDEuNzE0IDE1OC4yMDYgMjQxLjkyMiAxNTguMTgxIDI0Mi4xMzEgMTU4LjE1NkMyNDIuMTU2IDE1OC4xNDcgMjQyLjE4OSAxNTguMTQ3IDI0Mi4yMTQgMTU4LjEzOUMyNDIuMzU2IDE1OC4xMjIgMjQyLjQ5NyAxNTguMDk3IDI0Mi42MzkgMTU4LjA3MkMyNDIuODQ3IDE1OC4wNDcgMjQzLjA1NiAxNTguMDA2IDI0My4yNjQgMTU3Ljk2NEMyNDMuNjgxIDE1Ny44NzIgMjQzLjg3IDE1Ny44MDYgMjQ0LjQzNiAxNTcuNjExQzI0NS4wMDEgMTU3LjQxNyAyNDUuOTQgMTU3LjA3NyAyNDYuNTI3IDE1Ni43OTRDMjQ3LjExNSAxNTYuNTExIDI0Ny41MjIgMTU2LjIzOSAyNDguMDE0IDE1NS45MzFDMjQ4LjYyMiAxNTUuNTQ3IDI0OS4yMDEgMTU1LjE1NSAyNDkuNzg4IDE1NC43MTVDMjUwLjA0MSAxNTQuNTIxIDI1MC4yMTQgMTU0LjM5NyAyNTAuMzk3IDE1NC4yMjJMMjUwLjI5NyAxNTQuMTY0TDE1MC43MzEgMTAxLjU0N1oiPiYjeGE7IDwvcGF0aD4mI3hhOyA8cGF0aCBmaWxsPSIjN0QzNTNCIiBkPSJNMjk0Ljc2NiAyNS40OTgxSDI5NC42ODNMMjAzLjM1NyA3My43NDgzTDI1NC4xMjQgMTQ5LjM1N0wzMDAuNTI0IDMwLjQ5ODFWMzAuMzMxNUMzMDEuNjkxIDI2LjgzMTQgMjk4LjEwOCAyMy42NjQ4IDI5NC43NjYgMjUuNDk4MSI+JiN4YTsgPC9wYXRoPiYjeGE7IDxwYXRoIGZpbGw9IiNCRDQwNDMiIGQ9Ik0xNTUuNTk4IDIuNTU1NzJDMTUzLjI2NCAtMC44NTI2MjQgMTQ4LjE4MSAtMC44NTI2MjQgMTQ1LjkzMSAyLjU1NTcyTDk4LjEzODkgNzMuNzQ3N0wxNTAuNzMxIDEwMS41NDhMMjUwLjM5OCAxNTQuMjIyQzI1MS4wMjQgMTUzLjYwOSAyNTEuNTI2IDE1My4wMTIgMjUyLjA1NiAxNTIuMzgxQzI1Mi44MDYgMTUxLjQ1NiAyNTMuNTA2IDE1MC40NjUgMjU0LjEyMyAxNDkuMzU2TDIwMy4zNTYgNzMuNzQ3N0wxNTUuNTk4IDIuNTU1NzJaIj4mI3hhOyA8L3BhdGg+JiN4YTs8L3N2Zz4=;" vertex="1" parent="1">
          <mxGeometry x="640" y="310" width="78.83" height="42.83" as="geometry" />
        </mxCell>
        <mxCell id="OY8RV9DwScPBDpuIy3qS-17" value="" style="shape=image;verticalLabelPosition=bottom;labelBackgroundColor=default;verticalAlign=top;aspect=fixed;imageAspect=0;editableCssRules=.*;image=data:image/svg+xml,PHN2ZyB4bWxuczp4bGluaz0iaHR0cDovL3d3dy53My5vcmcvMTk5OS94bGluayIgeG1sbnM9Imh0dHA6Ly93d3cudzMub3JnLzIwMDAvc3ZnIiB4bWw6c3BhY2U9InByZXNlcnZlIiBzdHlsZT0iZW5hYmxlLWJhY2tncm91bmQ6bmV3IDAgMCA0MC4xIDQyOyIgdmlld0JveD0iMCAwIDQwLjIwMDAwMDc2MjkzOTQ1IDQyIiB5PSIwcHgiIHg9IjBweCIgaWQ9IkxheWVyXzEiIHZlcnNpb249IjEuMSIgd2lkdGg9IjQwLjIwMDAwMDc2MjkzOTQ1IiBoZWlnaHQ9IjQyIj4mI3hhOyA8c3R5bGUgdHlwZT0idGV4dC9jc3MiPiYjeGE7ICAuc3Qwe2ZpbGw6I0ZGMzYyMTt9JiN4YTsgPC9zdHlsZT4mI3hhOyA8bWV0YWRhdGE+JiN4YTsgICYjeGE7ICAgJiN4YTsgICAmI3hhOyAgICYjeGE7ICAgJiN4YTsgICYjeGE7IDwvbWV0YWRhdGE+JiN4YTsgPGc+JiN4YTsgIDxwYXRoIGQ9Ik00MC4xLDMxLjF2LTcuNGwtMC44LTAuNUwyMC4xLDMzLjdsLTE4LjItMTBsMC00LjNsMTguMiw5LjlsMjAuMS0xMC45di03LjNsLTAuOC0wLjVMMjAuMSwyMS4yTDIuNiwxMS42JiMxMDsmIzk7JiM5O0wyMC4xLDJsMTQuMSw3LjdsMS4xLTAuNlY4LjNMMjAuMSwwTDAsMTAuOVYxMkwyMC4xLDIzbDE4LjItMTB2NC40bC0xOC4yLDEwTDAuOCwxNi44TDAsMTcuM3Y3LjRsMjAuMSwxMC45bDE4LjItOS45djQuM2wtMTguMiwxMCYjMTA7JiM5OyYjOTtMMC44LDI5LjVMMCwzMHYxLjFMMjAuMSw0Mkw0MC4xLDMxLjF6IiBjbGFzcz0ic3QwIj4mI3hhOyAgPC9wYXRoPiYjeGE7IDwvZz4mI3hhOzwvc3ZnPg==;" vertex="1" parent="1">
          <mxGeometry x="171" y="330.00000000000006" width="76.19" height="80" as="geometry" />
        </mxCell>
        <mxCell id="OY8RV9DwScPBDpuIy3qS-18" value="" style="sketch=0;aspect=fixed;pointerEvents=1;shadow=0;dashed=0;html=1;strokeColor=none;labelPosition=center;verticalLabelPosition=bottom;verticalAlign=top;align=center;fillColor=#00188D;shape=mxgraph.azure.computer" vertex="1" parent="1">
          <mxGeometry x="640" y="340" width="50" height="45" as="geometry" />
        </mxCell>
        <mxCell id="OY8RV9DwScPBDpuIy3qS-19" value="" style="shape=actor;whiteSpace=wrap;html=1;" vertex="1" parent="1">
          <mxGeometry x="630" y="352.83000000000004" width="29.81" height="40" as="geometry" />
        </mxCell>
        <mxCell id="OY8RV9DwScPBDpuIy3qS-20" value="" style="endArrow=classic;html=1;rounded=0;" edge="1" parent="1">
          <mxGeometry width="50" height="50" relative="1" as="geometry">
            <mxPoint x="426" y="219.5" as="sourcePoint" />
            <mxPoint x="346" y="219.5" as="targetPoint" />
          </mxGeometry>
        </mxCell>
        <mxCell id="OY8RV9DwScPBDpuIy3qS-21" value="" style="endArrow=classic;html=1;rounded=0;" edge="1" parent="1">
          <mxGeometry width="50" height="50" relative="1" as="geometry">
            <mxPoint x="460" y="290" as="sourcePoint" />
            <mxPoint x="460" y="325.68" as="targetPoint" />
          </mxGeometry>
        </mxCell>
        <mxCell id="OY8RV9DwScPBDpuIy3qS-22" value="" style="endArrow=classic;html=1;rounded=0;" edge="1" parent="1">
          <mxGeometry width="50" height="50" relative="1" as="geometry">
            <mxPoint x="490.95" y="325.68" as="sourcePoint" />
            <mxPoint x="490.95" y="290" as="targetPoint" />
          </mxGeometry>
        </mxCell>
        <mxCell id="OY8RV9DwScPBDpuIy3qS-23" value="" style="endArrow=classic;html=1;rounded=0;" edge="1" parent="1">
          <mxGeometry width="50" height="50" relative="1" as="geometry">
            <mxPoint x="550" y="370" as="sourcePoint" />
            <mxPoint x="600" y="370" as="targetPoint" />
          </mxGeometry>
        </mxCell>
        <mxCell id="OY8RV9DwScPBDpuIy3qS-24" value="" style="endArrow=classic;html=1;rounded=0;" edge="1" parent="1">
          <mxGeometry width="50" height="50" relative="1" as="geometry">
            <mxPoint x="600" y="352" as="sourcePoint" />
            <mxPoint x="550" y="352.16" as="targetPoint" />
          </mxGeometry>
        </mxCell>
        <mxCell id="OY8RV9DwScPBDpuIy3qS-25" value="" style="endArrow=classic;html=1;rounded=0;" edge="1" parent="1">
          <mxGeometry width="50" height="50" relative="1" as="geometry">
            <mxPoint x="420" y="380" as="sourcePoint" />
            <mxPoint x="280" y="380" as="targetPoint" />
          </mxGeometry>
        </mxCell>
        <mxCell id="OY8RV9DwScPBDpuIy3qS-26" value="" style="endArrow=classic;html=1;rounded=0;" edge="1" parent="1">
          <mxGeometry width="50" height="50" relative="1" as="geometry">
            <mxPoint x="208.75" y="315.68" as="sourcePoint" />
            <mxPoint x="208.75" y="280" as="targetPoint" />
          </mxGeometry>
        </mxCell>
        <mxCell id="OY8RV9DwScPBDpuIy3qS-27" value="" style="sketch=0;points=[[0,0,0],[0.25,0,0],[0.5,0,0],[0.75,0,0],[1,0,0],[0,1,0],[0.25,1,0],[0.5,1,0],[0.75,1,0],[1,1,0],[0,0.25,0],[0,0.5,0],[0,0.75,0],[1,0.25,0],[1,0.5,0],[1,0.75,0]];outlineConnect=0;fontColor=#232F3E;fillColor=#01A88D;strokeColor=#ffffff;dashed=0;verticalLabelPosition=bottom;verticalAlign=top;align=center;html=1;fontSize=12;fontStyle=0;aspect=fixed;shape=mxgraph.aws4.resourceIcon;resIcon=mxgraph.aws4.machine_learning;" vertex="1" parent="1">
          <mxGeometry x="439.19" y="90" width="78" height="78" as="geometry" />
        </mxCell>
        <mxCell id="OY8RV9DwScPBDpuIy3qS-28" value="Hybris Product Feed API" style="text;html=1;align=center;verticalAlign=middle;whiteSpace=wrap;rounded=0;" vertex="1" parent="1">
          <mxGeometry x="32.46" y="250" width="90" height="30" as="geometry" />
        </mxCell>
        <mxCell id="OY8RV9DwScPBDpuIy3qS-30" value="" style="shape=image;verticalLabelPosition=bottom;labelBackgroundColor=default;verticalAlign=top;aspect=fixed;imageAspect=0;image=data:image/png,iVBORw0KGgoAAAANSUhEUgAAAOEAAADhCAMAAAAJbSJIAAABj1BMVEX////qQzVChfQ0qFP7vAT7ugD7uAA9g/T///Yeo0UlpUv///zpOCw3gPQufPP//fj8wQDw9f5Dg/vqPzDqMyEbp1bqhIDyhSEpevP1mRyFxpTpNzcvif1GiPTyPh6wX448ksNot278ylT7wSWOrz0zqkKgxXv+7cioYpjpNyZun434+/9unvb+6r/jX13/+OdwmOD8yVDQ6NaLsPiqxPnvdmL+8dRil/XuaUje6P393ZnO3fz7xDbtYljzop34ysj946ygvfl9p/f92IbI2fv8z2d6nNv81n8zqzyv2bmYzqXr6+WGv3ltvH+/3LZtuXH61Lz3uZr0oXfyjFbwdUfuYzDuajnv4+jopafgaGn85c7xhV7rRwvgUVDkiozqu7/rTCTzlGj1poPjlpv5yqHo0trxgEPzlXTbdn3fPzrsVkLxiHX2t6v62dL97eTzoJLse3X2p0eyd5nxj4n0r3eLqNmgtNfDzty4wmhzrc2svdnc7uDc39+hulZeoc5aitahyo/A1qXb5L9bsFmu1KwxMtxCAAAOD0lEQVR4nO2d/XsTxxHHZb1ZrxZEB6VurFZ27EQ12FgQCAm2CW+phGUwgdhg/BZKWzu2oaEkbZU2EPsP793p7e52dm9md8/kebrfX0geS6v9aPZmd2dmV7GYkZGRkZGRkZGRkZGRkZGRkZGRkZGRkdH/mfKZTCb/vjsRka48WHn49aPH29uPH3/z6OuHKw+uyLe1uri2cPbJzMzMkydnF9YWV6f1dVNOpacr688sq1Aol4cclcvlQqFmPVtfeZqhtjW9uDljWVatZjfmqFCr2f+7sbm1GkXPUco/2Nm2Ch20gMoFa3vnAaGt1bUnBasGtFW2MTeevxfI2W9tPIiuJxvy21lcW1szIN2AsjKzddLj9elORYjXhazsPA1tanqhYAnwupBW4UQNeWUdw9dhXA/xO88LNVxTNWvz9MngxWYfYvncb7+yI3A6a1i+DuPaiYzVP28T+BwVtnk+Z3XDojVlbbyInG/2L8ROuR1bB824UAl9/oIqV55HbMYHz4gG7KiwzXqc1XmJ78oxY6QeZ6Ui0ylHlZVAU4vhDhRW2dqKDnBH6lvvyPqrr6k1haYqzyPiKz2SGqE91dY9bW0qANrf1t8iAcx8owRoP4yf9fceZ5UAbcQnEQCWJn7zO7Vu2YglPYBDld9f1U94PXVKF6IGwA+L53UDjqeSSR2IeT2A8Xjxkl7AW+lkUhMiClA0k7iA8fjIZZ2AF1xAHqK9WXW3rtvuP2J/VB4S/r3b1NDuruX8C4F2AePxc1/oA8ykkkkuYsHa+27/4NBdl2UOD/a/27MIq2mfatbu2a2Dbuhi9WBrc4OF7APG48P6FnBzfcIgYtmqvTwIvvzwZVliwVK2htgt4Orarr8pD2Bcn7e5kU4mQcSytbcIv2Vxj8hYtjY4i7EXM56mvID2OL2tB3AwRgOINR6fo/0hylit7QoWmy/6myw/oLZxesdP2EesvBS/7zV+mW5tipta65gxCKhpyriSTiYBxEKZef6COhCFlzwql0P3tau7BQDQHqfXNBCOBwFdxMJ8Kfyth3uYpWxtAzHWpmdqAGB8WIOzYU3oIs7j3v1p+MNYm8E19QoA1GLE8RRAmB7Hvj0UEQsYi10aAQiHb8phDTQLmTB1Hd9ACCIeMBa7WQQQR1RDjLcgwiTiGexLiEgBjMXGhlnC4pdEoqAgvjQtufQp392USYCx09A4HSM1wehjwITpW8RGBCakDAZblwHEEbUF+FeAn5kgtnFWYMPPiEnVq+w4VZz1oTH6Ma0J4X6wQES8Bo1TWn/8giZDgh91FLLhpSLeZI04ojIlfs4SEk0YuqMnIgJGLKps9oEVW5LUACJkQURkn0SlSZ/1M+nPKe9HxWT6QUaULrPTfpFI5RGwoEkjE9eukFE1khWBOVFhWQPMhpSpAh02JCGyw1RhRmQdTeor/LsJcVEK4pfMMFVwNbeY5zB9Af1mUuCXgPgFM0wVlqbB+AVlSUqMbOMR2QdRwZnOyTsacugej8iM0mH5NM11lhD5ToncBBpxjCGU316whMj5Xir5gkVknalOwlPRAaIRfwWE0ukzHOL5SAkxo1QhP4hCjNaGCE/zSiUBikHU6WnYrUU6tDBWCdBGDI8065wt2BhG2Iyf+btiwcZQ5fsQKwIzvnzgm12Xpm8I31CaOPVbtUR45ZMPLorHCbBqk4/U3CCuvEsTqaQaYuWTD+NFMaLWlTcQphFFaRzApBKiAxgPQWQni6J8ojRD2gF3AAWI3fJ7pxpfBChGnGZ3wCrZGXY+5EcxeoAwYrlmledfL+wvLi7uL7yeBwvze4BCxNvAHl8eENg+cTf5A0AAsWbN7/sTqgdr88FS/wGgCBGIRKnkEFlXw4smegGDiLXawiHwlsPXtRoHkI8IRRNVcjNQbm0uHNCHWLAWuO0vDOzoB+QiQhFhpcTFBPAkAkYMAnoQrVeiRUqptwQKAnIQr51jAOPDKoBApAaaMFjAHmK5IChIcbXouhwWEEYEMjOKWWAoccG4Uwiwg1jYCw/2ru4VQEAIEcyuKZYNAcM0OCfCgA4iMsM7DwOyiGCGVG2QgrkZe8bwLo55gLb+gStZyn8P9RxABLPcqkVDwLLGXp16/CkfMI2PHp+HahAYRPBVSrk1V8Ck7602EQDeIXwK4EEYxJvgGFUvGQLLTfqIgiFKSoaf5hlxgHgJfImOMlrQiF1EASApSWUvN4GJzocI1gupbO8Hgo3oIooASXnGGKccaIAIA2p4Ch3BRUM2YoYPSEwVxzgzQR+RA1hUrvlylecwpGDyDj4+R9UTu3cfgIxx/lbUdKr0ggCFI2rNja1pPmGc42n1HUiAnY1AIQErWLCzFEiLm+mIN065SsncHwFWA4mkXJboEVhGKwCkTPYDcad9WLoq9TsCNvsCSfgZR0AhiUDRHHzCEpIvxXBFGqb6D6/dISBKeFJXBBsqZGO4GkcjUkpSfMI/iMNjURxaR1uRvGLrCT1fDI9Fc4EE1oqSjka4rPEDxqO6IQOJSK2x7QvpTKOyoCPw8IU+wtsowugsaCsTrQ2RhBHejFGCIm8nTli8KzfdIiTY8PoJZT0N8jkciQoRCyi3s3CE9aURIaIBkynqkZOe0PNhJIh5NCAnPYUQfk0TBeJ1yi5Y7iNEu3wG8Y3uKwzxq9IkOZLYE2lvce4HvYCkzZPswhTraLqIP+oEhI6wiUQ8OdQVcY8/ck8f4Cw5EiUzTKlxmuGrxLN9As1RCaXmC3KsrfhGFyAtSNMR/euleNKudD2KGY4F04IJRMLXCPzMcBH+2/CYnlmREw+212aCKYT8JAryFsNj0284eQstUwYnVuouPue4iCn0if2uuGlgdz9Y4iHqcDbssZI+oGghQFx+Q1UWPQs6G14Oog5nA5uw33++FUnjlD9Gezt6HqL6dhi+NWLgSPhWnMCPoGmoysJjQRfxLjSO1Y0IZoB9VRZcxNR19OL4Ku8h9MZkMhdBRNUVOFT2lfLvjrgDNfVP5If8i5fE9wedMtCyTumcsyOw64Hhx7Fi6qPcEuozqn/6wwchQ7Sje8CjqJpEBG+NYAJNsBU/OpPI3Q//iEwil5gEEdmw4b8BxHNqsUVgtoeSg4AVUzZgwu58O+QT6ln7ZQnIikDgN/MzcGuE2jAFTAPOAowVO4C2sk1R+/lWtvMy1opg4Pcn9olVG6bAZMhJLAWs2Ad0zNjg8jWzud7Lgoic0P1doEZYZZhCt0ZwJnKfFT2AjhkTDcil32vmcp5X+RF5ofufgFJ9lWw3e7SLv970WNEP6Ngx22r4twHtRjWb87/Ii8hNvpTYJ1Ep3Q08hfx4dh+RAXQZs4lWs1F31Gi2EkE8P6Ig+cK6U5UHEVrQCJYQXUQIsEOZszlt5QA6H6IouwTMiefkCYHZULgpchG5gAh1EIX5wTw7TBXK99jwRcje3XE3CoAdxJD84A/M6lTB1XxOPmE5p2JBR/bUH5Lh/ZE9fyg/5wO3RoRt+v6jBmgj/jdkemMfRAVnCtwaEfqeKs+N4JRthX3ALHsOWL7KVOo8vhJidjS0/RKzW1aoZmcJMeH6+/KICMBYjHGmWm/+QGUGpa2IAoyYEJdykUTEAcYu/goI5QYqEjBiG2KzuxJWxALmmWiNgqcBbo3AvpVsRSyg3tkCuDUCHeYlWhENqHfGB26NwBcDkayIB9S7agNujSCkPglWJAACK2+FOxWIt0YEhbYiBVDv7qmkeG8i0ooUQHAHrJCdOcUS3qC8H4VIAoSCwipF7UBAmFZIghioNEAgEqV0XB26NYJ21XWoFWmAUDRRKeiNvjWCrxArEgHBiLDSKUvkrREiCa1IBQSi+opXlkPpQ+qJGIEVc0RAMDOjdu086taIMAmMSGwJyq6pHgUGb42gOZuWwIa4FGpPUIZU9V59+NYIUk2XAJCICGe5VX8bAb41gjApCgFJiJmfI/l9C86tEegpIwSQgJi/C41RDefV4QsHppBOMBQQj3j0RyjXr+PHgiAjTuXCI7e28qh1ae4IUWHYTuQmAUT1n5mJgUacOmP3qxraL7tXCEAn6/ZLWFPLTrofQNTye09sFftUJzeR5ebnO2pmUXxuU2+F3rnUrWdgEDWddg6exp/qJV+yLUEpSR1pwK4Zs8fc1Gv+uJ8wDiLqOsbmT5ROnfH0i8dYr+IN2G0rdwwO+3bTmxD3I+o7ke89ATzlS5/lstUG07F7jQSVr9PW/eVAW+3jYD2DF1HjgfU8D7DTsVaz3u6OsXy73mSKLCiQiaXj5XrbVn25eR+qZ/Agaqgt7au/AGcBOx3L2n2pVrv/IWQIfTy75QzceoY+os7fIe1v9mFAguz9oGIKtY84orogDcidMqZUO+dueBXyix5ETdcLeTSe1mJBRzqsWIzgZ6vHdQFqsWIE12KgVtE4QHXE7FQUgDaizCw36JW30HRJram30QDGYqMK/QqsYt+qNPUuKsBYrCHbr1yuHmhqWRpxMnQnoiLshiigbJVdV0s2lTuSO2SMVl5mpMK13iWZhzG6R3Ag2rbI6VSVt8la5laacpQ7ogUyZdWkLK0Fhey2GUdJTU2+030In6d76I7lcsLDCPbTuIRuavJtxE+gv2NNzADLJprhXzqO0eaL7M4WjvKNI3HPnPp8XFOZY7Cw3dvU0buT5nPVbiY4uzh7iwfs/QWqj3KbsvGOw44WRah2w+6as1vN9frj7F+ro3W6S2gftyY9LXXbOloKRjbeg/LtRnO01araarVGG3WFLzxTXz4erVaPHN1fai7X3z+dkZGRkZGRkZGRkZGRkZGRkZGRkZGRkZGRNv0P3Zb+a+dxNTkAAAAASUVORK5CYII=;" vertex="1" parent="1">
          <mxGeometry x="181" y="197.5" width="35" height="35" as="geometry" />
        </mxCell>
        <mxCell id="OY8RV9DwScPBDpuIy3qS-31" value="Databricks Model" style="text;html=1;align=center;verticalAlign=middle;whiteSpace=wrap;rounded=0;" vertex="1" parent="1">
          <mxGeometry x="449.61" y="50" width="60" height="30" as="geometry" />
        </mxCell>
        <mxCell id="OY8RV9DwScPBDpuIy3qS-32" value="Models reads user defined parameters that can be updated from Streamlit front end and selects products based on model scoring" style="text;html=1;align=center;verticalAlign=middle;whiteSpace=wrap;rounded=0;" vertex="1" parent="1">
          <mxGeometry x="519.02" y="185" width="170" height="70" as="geometry" />
        </mxCell>
        <mxCell id="OY8RV9DwScPBDpuIy3qS-33" value="Streamlit Front End / Human in the loop" style="text;html=1;align=center;verticalAlign=middle;whiteSpace=wrap;rounded=0;" vertex="1" parent="1">
          <mxGeometry x="600" y="400" width="113.62" height="30" as="geometry" />
        </mxCell>
        <mxCell id="OY8RV9DwScPBDpuIy3qS-34" value="Selected items are read from Snowflake using Databricks Workflow, which then executes a pull request on those items within the Hybris database" style="text;html=1;align=center;verticalAlign=middle;whiteSpace=wrap;rounded=0;" vertex="1" parent="1">
          <mxGeometry x="279.19" y="280" width="160" height="90" as="geometry" />
        </mxCell>
        <mxCell id="OY8RV9DwScPBDpuIy3qS-35" value="Databricks executes a get request to retrieve all web ready products" style="text;html=1;align=center;verticalAlign=middle;whiteSpace=wrap;rounded=0;" vertex="1" parent="1">
          <mxGeometry x="240" y="120" width="140" height="48" as="geometry" />
        </mxCell>
      </root>
    </mxGraphModel>
  </diagram>
</mxfile>
